<?xml version="1.0" encoding="utf-8"?>
<!-- Generator: Adobe Illustrator 25.2.1, SVG Export Plug-In . SVG Version: 6.00 Build 0)  -->
<svg version="1.1" id="Layer_1" xmlns="http://www.w3.org/2000/svg" xmlns:xlink="http://www.w3.org/1999/xlink" x="0px" y="0px"
	 viewBox="0 0 18 18" style="enable-background:new 0 0 18 18;" xml:space="preserve">
<style type="text/css">
	.st0{fill:#475694;}
</style>
<path class="st0" d="M0.1,9.2L0.9,10c0.2,0.2,0.5,0.2,0.7,0l6.3-6.2v13.7c0,0.3,0.2,0.5,0.5,0.5h1.1c0.3,0,0.5-0.2,0.5-0.5V3.8
	l6.3,6.2c0.2,0.2,0.5,0.2,0.7,0l0.8-0.8C18,9,18,8.7,17.9,8.6L9.3,0.1C9.2,0,8.8,0,8.7,0.1L0.1,8.6C0,8.7,0,9,0.1,9.2z"/>
</svg>
