<svg width="8" height="6" viewBox="0 0 8 6" fill="none" xmlns="http://www.w3.org/2000/svg">
  <path fill="#FFFFFF"
        d="M7.42857 4C7.58333 4 7.71429 4.06944 7.82143 4.20833C7.94048 4.33333 8 4.48611 8 4.66667V5.33333C8 5.51389 7.94048 5.67361 7.82143 5.8125C7.71429 5.9375 7.58333 6 7.42857 6H0.571429C0.416667 6 0.279762 5.9375 0.160714 5.8125C0.0535714 5.67361 0 5.51389 0 5.33333V4.66667C0 4.48611 0.0535714 4.33333 0.160714 4.20833C0.279762 4.06944 0.416667 4 0.571429 4H7.42857ZM7.42857 0C7.58333 0 7.71429 0.0694444 7.82143 0.208333C7.94048 0.333333 8 0.486111 8 0.666667V1.33333C8 1.51389 7.94048 1.67361 7.82143 1.8125C7.71429 1.9375 7.58333 2 7.42857 2H0.571429C0.416667 2 0.279762 1.9375 0.160714 1.8125C0.0535714 1.67361 0 1.51389 0 1.33333V0.666667C0 0.486111 0.0535714 0.333333 0.160714 0.208333C0.279762 0.0694444 0.416667 0 0.571429 0H7.42857Z"/>
</svg>
