<svg width="8" height="8" viewBox="0 0 8 8" fill="none" xmlns="http://www.w3.org/2000/svg">
  <path fill="#FFFFFF"
        d="M7.52754 6.11567C7.65495 6.24308 7.71375 6.39989 7.70395 6.58611C7.71375 6.77232 7.65495 6.92913 7.52754 7.05654L7.0571 7.52698C6.92969 7.65439 6.76798 7.71809 6.57196 7.71809C6.39555 7.71809 6.24364 7.65439 6.11623 7.52698L0.470993 1.88174C0.343583 1.75433 0.274978 1.59752 0.265177 1.41131C0.274978 1.22509 0.343583 1.06828 0.470993 0.940872L0.941429 0.470436C1.06884 0.343026 1.22075 0.279321 1.39716 0.279321C1.59318 0.279321 1.75489 0.343026 1.8823 0.470436L7.52754 6.11567Z"/>
  <path fill="#FFFFFF"
        d="M1.88164 7.52973C1.75423 7.65714 1.59742 7.71595 1.41121 7.70615C1.22499 7.71595 1.06818 7.65714 0.940771 7.52973L0.470335 7.0593C0.342925 6.93189 0.27922 6.77018 0.27922 6.57416C0.27922 6.39775 0.342925 6.24584 0.470335 6.11843L6.11557 0.47319C6.24298 0.345781 6.39979 0.277175 6.58601 0.267374C6.77222 0.277175 6.92903 0.34578 7.05644 0.47319L7.52688 0.943626C7.65429 1.07104 7.71799 1.22295 7.71799 1.39936C7.71799 1.59538 7.65429 1.75709 7.52688 1.8845L1.88164 7.52973Z"/>
</svg>
