<svg width="30" height="30" viewBox="0 0 30 30" fill="none" xmlns="http://www.w3.org/2000/svg">
<path d="M30 15C30 23.2842 23.2842 30 15 30C6.71578 30 0 23.2842 0 15C0 6.71578 15 0 15 0C15 0 30 6.71578 30 15Z" fill="#A2001D"/>
<path d="M0 15C0 6.71578 6.71578 0 15 0C23.2842 0 30 6.71578 30 15" fill="#0052B4"/>
<path d="M20.217 18.914L14.9996 18.2618L9.78223 18.914V11.0879H20.217V18.914Z" fill="#F0F0F0"/>
<path d="M15.0003 18.2604C16.4411 18.2604 17.609 17.0924 17.609 15.6517C17.609 14.2109 16.4411 13.043 15.0003 13.043C13.5596 13.043 12.3916 14.2109 12.3916 15.6517C12.3916 17.0924 13.5596 18.2604 15.0003 18.2604Z" fill="#0052B4"/>
<path d="M14.9997 16.9564C15.72 16.9564 16.304 16.3724 16.304 15.652C16.304 14.9316 15.72 14.3477 14.9997 14.3477C14.2793 14.3477 13.6953 14.9316 13.6953 15.652C13.6953 16.3724 14.2793 16.9564 14.9997 16.9564Z" fill="#A2001D"/>
<path d="M13.0439 12.3906H16.957L15.0005 14.3472L13.0439 12.3906Z" fill="#6DA544"/>
<path d="M15.652 13.6953H14.3477V17.6084H15.652V13.6953Z" fill="#FFDA44"/>
<path d="M17.0865 17.2168H12.9125L9.78223 18.9125H20.217L17.0865 17.2168Z" fill="#6DA544"/>
</svg>
