<svg width="30" height="30" viewBox="0 0 30 30" fill="none" xmlns="http://www.w3.org/2000/svg">
<path d="M15 30C23.2843 30 30 23.2843 30 15C30 6.71573 23.2843 0 15 0C6.71573 0 0 6.71573 0 15C0 23.2843 6.71573 30 15 30Z" fill="#F0F0F0"/>
<path d="M29.9998 14.9999C29.9998 9.05297 26.5389 3.91453 21.5215 1.48828V28.5114C26.5389 26.0852 29.9998 20.9468 29.9998 14.9999Z" fill="#D80027"/>
<path d="M0 14.9999C0 20.9468 3.46084 26.0852 8.47828 28.5115V1.48828C3.46084 3.91453 0 9.05297 0 14.9999Z" fill="#D80027"/>
<path d="M17.6083 16.9573L20.217 15.6529L18.9127 15.0008V13.6964L16.3039 15.0008L17.6083 12.3921H16.3039L14.9996 10.4355L13.6952 12.3921H12.3909L13.6952 15.0008L11.0865 13.6964V15.0008L9.78223 15.6529L12.3909 16.9573L11.7387 18.2616H14.3474V20.2181H15.6517V18.2616H18.2605L17.6083 16.9573Z" fill="#D80027"/>
</svg>
