<svg width="30" height="30" viewBox="0 0 30 30" fill="none" xmlns="http://www.w3.org/2000/svg">
<g clip-path="url(#clip0)">
<path d="M30 14.9995C30 23.2837 23.2842 29.9995 15 29.9995C6.71578 29.9995 0 23.2837 0 14.9995C0.652148 14.9995 15 13.043 15 13.043L30 14.9995Z" fill="#338AF3"/>
<path d="M0 15C0 6.71578 6.71578 0 15 0C23.2842 0 30 6.71578 30 15" fill="#F0F0F0"/>
<path d="M20.9541 10.3496L15 16.3037L9.04598 10.3496C8.276 11.4926 7.82617 12.8683 7.82617 14.3472V16.3037C7.82617 19.4452 9.85615 22.1214 12.6732 23.09C12.2972 23.8269 12.3606 24.7465 12.9115 25.4341C13.6432 24.8476 14.4008 24.2405 15.0435 23.7256C15.6861 24.2406 16.4437 24.8477 17.1754 25.4341C17.7328 24.7385 17.7916 23.8051 17.4008 23.0639C20.1793 22.0742 22.1739 19.4177 22.1739 16.3037V14.3472C22.174 12.8683 21.7241 11.4927 20.9541 10.3496Z" fill="#6DA544"/>
<path d="M14.9996 21.5221C12.1227 21.5221 9.78223 19.1816 9.78223 16.3047V14.3482C9.78223 11.4713 12.1228 9.13086 14.9996 9.13086C17.8764 9.13086 20.217 11.4714 20.217 14.3482V16.3047C20.217 19.1816 17.8765 21.5221 14.9996 21.5221Z" fill="#FFDA44"/>
<path d="M18.261 16.3033V14.3468C18.261 12.5487 16.7981 11.0859 15.0001 11.0859C13.2021 11.0859 11.7393 12.5488 11.7393 14.3468V16.3033L15.0001 16.9554L18.261 16.3033Z" fill="#338AF3"/>
<path d="M11.7393 16.3047C11.7393 18.1028 13.2021 19.5655 15.0001 19.5655C16.7981 19.5655 18.261 18.1027 18.261 16.3047H11.7393Z" fill="#6DA544"/>
<path d="M18.913 9.12967C18.913 8.04914 18.037 7.17316 16.9565 7.17316C16.4552 7.17316 15.9984 7.36184 15.6521 7.67174V6.52096H16.3043V5.2166H15.6521V4.56445H14.3478V5.2166H13.6956V6.52096H14.3478V7.67174C14.0015 7.36184 13.5446 7.17316 13.0434 7.17316C11.9629 7.17316 11.0869 8.04914 11.0869 9.12967C11.0869 9.70899 11.3389 10.2293 11.7391 10.5876V11.7384H18.2608V10.5876C18.661 10.2293 18.913 9.70899 18.913 9.12967Z" fill="#FFDA44"/>
</g>
<defs>
<clipPath id="clip0">
<rect width="30" height="30" fill="white"/>
</clipPath>
</defs>
</svg>
