<svg width="30" height="30" viewBox="0 0 30 30" fill="none" xmlns="http://www.w3.org/2000/svg">
<g clip-path="url(#clip0)">
<path d="M15 30C23.2843 30 30 23.2843 30 15C30 6.71573 23.2843 0 15 0C6.71573 0 0 6.71573 0 15C0 23.2843 6.71573 30 15 30Z" fill="#F0F0F0"/>
<path d="M11.7383 13.0435H29.8722C28.9134 5.68371 22.6203 0 14.9991 0C13.8791 0 12.7883 0.123809 11.7383 0.356543V13.0435H11.7383Z" fill="#D80027"/>
<path d="M7.82508 13.0438V1.82422C3.70635 4.07152 0.757793 8.19365 0.125977 13.0439H7.82508V13.0438Z" fill="#D80027"/>
<path d="M7.82502 16.957H0.125977C0.757793 21.8072 3.70635 25.9294 7.82508 28.1766L7.82502 16.957Z" fill="#D80027"/>
<path d="M11.7383 16.9571V29.644C12.7883 29.8767 13.8791 30.0005 14.9991 30.0005C22.6203 30.0005 28.9134 24.3168 29.8722 16.957H11.7383V16.9571Z" fill="#D80027"/>
</g>
<defs>
<clipPath id="clip0">
<rect width="30" height="30" fill="white"/>
</clipPath>
</defs>
</svg>
