<svg width="30" height="30" viewBox="0 0 30 30" fill="none" xmlns="http://www.w3.org/2000/svg">
<g clip-path="url(#clip0)">
<path d="M20.2176 0.932988C18.5926 0.330059 16.835 0 15.0002 0C13.1654 0 11.4079 0.330059 9.78287 0.932988L8.47852 15L9.78287 29.067C11.4079 29.67 13.1654 30 15.0002 30C16.835 30 18.5926 29.67 20.2176 29.067L21.522 15L20.2176 0.932988Z" fill="#FFDA44"/>
<path d="M30.0004 15.0006C30.0004 8.55114 25.9298 3.05293 20.2178 0.933594V29.0677C25.9298 26.9482 30.0004 21.4501 30.0004 15.0006Z" fill="#D80027"/>
<path d="M0 15.0005C0 21.4501 4.07062 26.9482 9.78264 29.0676V0.933594C4.07062 3.05293 0 8.55113 0 15.0005Z" fill="black"/>
</g>
<defs>
<clipPath id="clip0">
<rect width="30" height="30" fill="white"/>
</clipPath>
</defs>
</svg>
