<svg width="30" height="30" viewBox="0 0 30 30" fill="none" xmlns="http://www.w3.org/2000/svg">
<path d="M28.5116 21.5216C29.4652 19.5496 30 17.3373 30 14.9999C30 12.6625 29.4652 10.4502 28.5116 8.47818L15 7.17383L1.4884 8.47818C0.534785 10.4502 0 12.6625 0 14.9999C0 17.3373 0.534785 19.5496 1.4884 21.5216L15 22.826L28.5116 21.5216Z" fill="#0052B4"/>
<path d="M14.9999 29.9998C20.9467 29.9998 26.0852 26.5389 28.5115 21.5215H1.48828C3.91453 26.5389 9.05297 29.9998 14.9999 29.9998Z" fill="#D80027"/>
<path d="M25.9785 17.9449L25.1862 18.564L25.53 19.5086L24.6964 18.9465L23.9041 19.5655L24.1812 18.599L23.3477 18.0367L24.3525 18.0017L24.6297 17.0352L24.9737 17.9799L25.9785 17.9449Z" fill="#F0F0F0"/>
<path d="M23.9494 14.4308L23.4167 15.2835L24.0631 16.0536L23.0874 15.8106L22.5546 16.6631L22.4843 15.6602L21.5088 15.4168L22.4411 15.0401L22.3711 14.0371L23.0173 14.8074L23.9494 14.4308Z" fill="#F0F0F0"/>
<path d="M20.841 11.8242L20.632 12.8077L21.5027 13.3104L20.5028 13.4159L20.2938 14.3991L19.8848 13.4807L18.8848 13.5856L19.6321 12.9128L19.2231 11.9944L20.0938 12.4971L20.841 11.8242Z" fill="#F0F0F0"/>
<path d="M17.0286 10.4355L17.1687 11.4312L18.1587 11.6057L17.2551 12.0467L17.3951 13.0423L16.6966 12.319L15.7928 12.7598L16.2649 11.8719L15.5664 11.1487L16.5566 11.3233L17.0286 10.4355Z" fill="#F0F0F0"/>
<path d="M12.9709 10.4355L13.443 11.3233L14.433 11.1486L13.7347 11.8721L14.2066 12.7599L13.303 12.319L12.6044 13.0421L12.7445 12.0467L11.8408 11.606L12.831 11.4312L12.9709 10.4355Z" fill="#F0F0F0"/>
<path d="M9.15865 11.8242L9.90596 12.4971L10.7765 11.9944L10.3677 12.9132L11.1148 13.5858L10.1149 13.4807L9.7058 14.3991L9.49703 13.4157L8.49707 13.3107L9.36777 12.8078L9.15865 11.8242Z" fill="#F0F0F0"/>
<path d="M6.0499 14.4306L6.9823 14.8073L7.62836 14.0371L7.55846 15.0403L8.49056 15.417L7.51504 15.6601L7.44478 16.6629L6.91217 15.8104L5.93652 16.0535L6.58281 15.2833L6.0499 14.4306Z" fill="#F0F0F0"/>
<path d="M4.02148 17.9448L5.02648 17.9798L5.37019 17.0352L5.64764 18.0017L6.65234 18.0368L5.81879 18.5991L6.09582 19.5655L5.30363 18.9465L4.47002 19.5086L4.81391 18.5639L4.02148 17.9448Z" fill="#F0F0F0"/>
<path d="M28.5115 8.47828C26.0852 3.46084 20.9467 0 14.9999 0C9.05297 0 3.91453 3.46084 1.48828 8.47828H28.5115Z" fill="#FFDA44"/>
</svg>
