<svg width="30" height="30" viewBox="0 0 30 30" fill="none" xmlns="http://www.w3.org/2000/svg">
<path d="M0 15.0002C0 16.835 0.330059 18.5926 0.932988 20.2176L15 21.522L29.067 20.2176C29.6699 18.5926 30 16.835 30 15.0002C30 13.1654 29.6699 11.4079 29.067 9.78287L15 8.47852L0.932988 9.78287C0.330059 11.4079 0 13.1654 0 15.0002Z" fill="#FFDA44"/>
<path d="M29.0666 9.78264C26.9472 4.07068 21.4491 0 14.9996 0C8.55016 0 3.05201 4.07068 0.932617 9.78264H29.0666Z" fill="#D80027"/>
<path d="M0.932617 20.2168C3.05201 25.9288 8.55016 29.9994 14.9996 29.9994C21.4491 29.9994 26.9472 25.9288 29.0666 20.2168H0.932617Z" fill="#D80027"/>
</svg>
