<svg width="30" height="30" viewBox="0 0 30 30" fill="none" xmlns="http://www.w3.org/2000/svg">
<g clip-path="url(#clip0)">
<path d="M20.2176 0.93293C18.5926 0.330059 16.835 7.79868e-09 15.0002 7.79868e-09C13.1654 -5.8586e-05 11.4079 0.330059 9.78287 0.93293L8.47852 14.9999L9.78287 29.067C11.4078 29.67 13.1654 30 15.0002 30C16.835 30 18.5926 29.67 20.2176 29.067L21.5219 15L20.2176 0.93293Z" fill="#FFDA44"/>
<path d="M30.0004 15.0006C30.0004 8.55119 25.9298 3.05293 20.2178 0.933594V29.0677C25.9298 26.9482 30.0004 21.4501 30.0004 15.0006Z" fill="#D80027"/>
<path d="M0 15.0005C0 21.4501 4.07062 26.9481 9.78252 29.0676L9.78258 0.933594C4.07062 3.05293 0 8.55102 0 15.0005Z" fill="#0052B4"/>
</g>
<defs>
<clipPath id="clip0">
<rect width="30" height="30" fill="white"/>
</clipPath>
</defs>
</svg>
