<svg width="30" height="30" viewBox="0 0 30 30" fill="none" xmlns="http://www.w3.org/2000/svg">
<path d="M15 30C23.2843 30 30 23.2843 30 15C30 6.71573 23.2843 0 15 0C6.71573 0 0 6.71573 0 15C0 23.2843 6.71573 30 15 30Z" fill="#F0F0F0"/>
<path d="M15 11.0869H29.4833C29.1071 9.69154 28.5355 8.37664 27.7984 7.17383H15V11.0869Z" fill="#338AF3"/>
<path d="M5.66322 26.7392H24.3378C25.7067 25.6489 26.8807 24.3246 27.7989 22.8262H2.20215C3.12037 24.3245 4.29436 25.6489 5.66322 26.7392Z" fill="#338AF3"/>
<path d="M15 0C15 1.30436 15 3.26086 15 3.26086H24.3373C21.775 1.22016 18.5302 0 15 0Z" fill="#338AF3"/>
<path d="M15 11.0869H29.4833C29.1071 9.69154 28.5355 8.37664 27.7984 7.17383H15V11.0869Z" fill="#338AF3"/>
<path d="M0 15C0 16.3539 0.180469 17.6654 0.516738 18.9131H29.4833C29.8195 17.6654 30 16.3539 30 15H0Z" fill="#338AF3"/>
<path d="M13.0438 8.77848L11.2118 9.64021L12.1873 11.4144L10.198 11.0339L9.94596 13.0434L8.56045 11.5654L7.17482 13.0434L6.92281 11.0339L4.93355 11.4143L5.90902 9.64015L4.07715 8.77848L5.90908 7.91685L4.93355 6.14264L6.92275 6.52314L7.17488 4.51367L8.56045 5.99164L9.94602 4.51367L10.198 6.52314L12.1873 6.14264L11.2118 7.91691L13.0438 8.77848Z" fill="#FFDA44"/>
</svg>
