<svg width="30" height="30" viewBox="0 0 30 30" fill="none" xmlns="http://www.w3.org/2000/svg">
<path d="M15 29.9999C23.2842 29.9999 29.9999 23.2842 29.9999 15C29.9999 6.71572 23.2842 0 15 0C6.71572 0 0 6.71572 0 15C0 23.2842 6.71572 29.9999 15 29.9999Z" fill="#FFDA44"/>
<path d="M11.7394 2.60938H6.5459C6.31575 2.7667 6.09051 2.93047 5.86979 3.09998L4.56543 15.0006L5.86979 26.9013C6.09051 27.0708 6.31575 27.2346 6.5459 27.3919H11.7394V2.60938Z" fill="#FF9811"/>
<path d="M0 15.0003C0 19.8487 2.30086 24.159 5.86958 26.901V3.09961C2.30086 5.84169 0 10.152 0 15.0003Z" fill="#6DA544"/>
<path d="M24.1309 9.14453V9.51982L24.1447 9.52193L24.1309 9.14453Z" fill="#FFDA44"/>
<path d="M28.804 18.9137H25.9779L24.7823 20.2181V22.8268H22.1736V21.5224H23.4779V18.9137H17.6083V20.5441H16.304V17.4368C15.9038 17.0786 15.6518 16.5582 15.6518 15.9789V7.50067C15.6518 6.42014 16.5278 5.54417 17.6083 5.54417V17.6094H20.217L21.1121 16.8634C20.9558 16.4911 20.8692 16.0822 20.8692 15.6529V13.6964H18.9127V9.78337H22.8257C22.8257 9.13122 23.804 8.47902 23.804 8.47902C23.804 8.47902 24.7823 9.13116 24.7823 9.78337V10.7617V13.6964C25.5078 13.7051 26.6606 13.6863 27.906 13.6964C27.5788 13.1246 27.3909 12.446 27.3909 11.7399C27.3909 10.5891 27.8878 9.55445 28.6787 8.83843C27.5387 6.31216 25.7196 4.15813 23.4539 2.60938H13.6953V27.392H23.454C26.209 25.5087 28.3037 22.7307 29.32 19.4766L28.804 18.9137Z" fill="#A2001D"/>
</svg>
