<svg width="30" height="30" viewBox="0 0 30 30" fill="none" xmlns="http://www.w3.org/2000/svg">
<g clip-path="url(#clip0)">
<path d="M15 30C23.2843 30 30 23.2843 30 15C30 6.71573 23.2843 0 15 0C6.71573 0 0 6.71573 0 15C0 23.2843 6.71573 30 15 30Z" fill="#FFDA44"/>
<path d="M11.7403 13.0435H29.8741C28.9153 5.68371 22.6222 0 15.0011 0C13.8811 0 12.7902 0.123809 11.7402 0.356543V13.0435H11.7403Z" fill="#0052B4"/>
<path d="M7.82606 13.0438V1.82422C3.70727 4.07152 0.75877 8.19365 0.126953 13.0439H7.82606V13.0438Z" fill="#0052B4"/>
<path d="M7.826 16.957H0.126953C0.75877 21.8072 3.70727 25.9294 7.82606 28.1766L7.826 16.957Z" fill="#0052B4"/>
<path d="M11.7402 16.9571V29.644C12.7902 29.8767 13.8811 30.0005 15.0011 30.0005C22.6222 30.0005 28.9153 24.3168 29.8741 16.957H11.7402V16.9571Z" fill="#0052B4"/>
</g>
<defs>
<clipPath id="clip0">
<rect width="30" height="30" fill="white"/>
</clipPath>
</defs>
</svg>
