<svg width="30" height="30" viewBox="0 0 30 30" fill="none" xmlns="http://www.w3.org/2000/svg">
<path d="M15 30C23.2843 30 30 23.2843 30 15C30 6.71573 23.2843 0 15 0C6.71573 0 0 6.71573 0 15C0 23.2843 6.71573 30 15 30Z" fill="#FCFCFC"/>
<path d="M23.4779 13.043C23.0214 13.043 22.4562 13.043 21.5214 13.043C21.5214 16.6448 18.6015 19.5647 14.9997 19.5647C11.3978 19.5647 8.47799 16.6448 8.47799 13.043C7.84752 13.043 7.15184 13.043 6.52148 13.043C6.52148 16.9228 9.1275 20.1939 12.6847 21.2013C12.2947 21.9421 12.3541 22.8749 12.9112 23.5701C13.643 22.9836 14.4005 22.3765 15.0432 21.8616C15.6858 22.3766 16.4435 22.9837 17.1751 23.5701C17.7377 22.868 17.7931 21.9234 17.3902 21.1789C20.9084 20.1468 23.4779 16.8952 23.4779 13.043Z" fill="#6DA544"/>
<path d="M9.78223 12.3914C9.78223 12.3914 9.78223 15.6522 13.0431 15.6522L13.6952 16.3044H14.9996C14.9996 16.3044 15.6517 14.3479 16.9561 14.3479C16.9561 14.3479 16.9561 13.0435 18.2605 13.0435C19.5648 13.0435 20.217 13.0435 20.217 13.0435C20.217 13.0435 19.5648 10.4348 22.8257 8.47832L21.5213 7.82617C21.5213 7.82617 16.9561 11.087 13.6952 10.4349V11.7392H12.3909L11.7387 11.0871L9.78223 12.3914Z" fill="#FFDA44"/>
</svg>
