<svg width="30" height="30" viewBox="0 0 30 30" fill="none" xmlns="http://www.w3.org/2000/svg">
<g clip-path="url(#clip0)">
<path d="M15 30C23.2843 30 30 23.2843 30 15C30 6.71573 23.2843 0 15 0C6.71573 0 0 6.71573 0 15C0 23.2843 6.71573 30 15 30Z" fill="#F0F0F0"/>
<path d="M14.3477 15.001H29.9998C29.9998 13.647 29.8193 12.3356 29.4831 11.0879H14.3477V15.001Z" fill="#D80027"/>
<path d="M14.3477 7.17479H27.7982C26.88 5.67643 25.706 4.35203 24.3371 3.26172H14.3477V7.17479Z" fill="#D80027"/>
<path d="M14.9994 30.0011C18.5296 30.0011 21.7744 28.7809 24.3368 26.7402H5.66211C8.22447 28.7809 11.4692 30.0011 14.9994 30.0011Z" fill="#D80027"/>
<path d="M2.20146 22.8271H27.7983C28.5354 21.6243 29.1071 20.3094 29.4831 18.9141H0.516602C0.892598 20.3094 1.4643 21.6243 2.20146 22.8271Z" fill="#D80027"/>
<path d="M15 15C15 6.71578 15 5.73914 15 0C6.71578 0 0 6.71578 0 15H15Z" fill="#0052B4"/>
<path d="M9.97428 12.8388C7.92572 12.8388 6.26506 11.1781 6.26506 9.12961C6.26506 7.08111 7.92578 5.42039 9.97428 5.42039C10.613 5.42039 11.214 5.58193 11.7387 5.86623C10.9156 5.06133 9.78989 4.56445 8.54764 4.56445C6.02641 4.56445 3.98242 6.60838 3.98242 9.12967C3.98242 11.651 6.02641 13.6949 8.54764 13.6949C9.78989 13.6949 10.9156 13.198 11.7387 12.3931C11.214 12.6773 10.6131 12.8388 9.97428 12.8388Z" fill="#FFDA44"/>
<path d="M11.0196 6.52148L11.6781 7.89856L13.1653 7.55496L12.4993 8.92834L13.6954 9.8768L12.2062 10.2125L12.2104 11.7389L11.0196 10.7839L9.82875 11.7389L9.83285 10.2125L8.34375 9.8768L9.53977 8.92834L8.87373 7.55496L10.361 7.89856L11.0196 6.52148Z" fill="#FFDA44"/>
</g>
<defs>
<clipPath id="clip0">
<rect width="30" height="30" fill="white"/>
</clipPath>
</defs>
</svg>
