<svg width="30" height="30" viewBox="0 0 30 30" fill="none" xmlns="http://www.w3.org/2000/svg">
<g clip-path="url(#clip0)">
<path d="M15 30C23.2843 30 30 23.2843 30 15C30 6.71573 23.2843 0 15 0C6.71573 0 0 6.71573 0 15C0 23.2843 6.71573 30 15 30Z" fill="#F0F0F0"/>
<path d="M15 30.0006C23.2842 30.0006 30 23.2848 30 15.0006C30 13.1658 29.67 11.4081 29.067 9.7832H0.932988C0.330059 11.4081 0 13.1658 0 15.0006C0 23.2848 6.71578 30.0006 15 30.0006Z" fill="#0052B4"/>
<path d="M15.0006 29.9994C21.4501 29.9994 26.9482 25.9288 29.0676 20.2168H0.933594C3.05299 25.9288 8.55113 29.9994 15.0006 29.9994Z" fill="#D80027"/>
<path d="M3.87891 8.47852V15.9613C3.87891 20.2178 9.43951 21.522 9.43951 21.522C9.43951 21.522 15.0001 20.2178 15.0001 15.9613V8.47852H3.87891Z" fill="#F0F0F0"/>
<path d="M5.18359 8.47852V15.9613C5.18359 16.461 5.29457 16.9329 5.51441 17.3753C7.69609 17.3753 10.957 17.3753 13.3652 17.3753C13.5851 16.9329 13.696 16.461 13.696 15.9613V8.47852H5.18359Z" fill="#D80027"/>
<path d="M12.0474 13.6962H10.091V12.3919H11.3954V11.0875H10.091V9.7832H8.78664V11.0875H7.48234V12.3919H8.78664V13.6962H6.83008V15.0006H8.78664V16.3049H10.091V15.0006H12.0474V13.6962Z" fill="#F0F0F0"/>
<path d="M7.29373 19.196C8.13426 19.7243 8.99781 20.0309 9.4399 20.1673C9.88199 20.031 10.7455 19.7243 11.5861 19.196C12.4337 18.6633 13.0279 18.054 13.3653 17.3752C12.9931 17.112 12.5391 16.9567 12.0486 16.9567C11.87 16.9567 11.6965 16.9779 11.5297 17.0167C11.1762 16.2135 10.3738 15.6523 9.43996 15.6523C8.50615 15.6523 7.70365 16.2135 7.35021 17.0167C7.1834 16.9779 7.00984 16.9567 6.83131 16.9567C6.34082 16.9567 5.88678 17.112 5.51465 17.3752C5.85186 18.054 6.44605 18.6632 7.29373 19.196Z" fill="#0052B4"/>
</g>
<defs>
<clipPath id="clip0">
<rect width="30" height="30" fill="white"/>
</clipPath>
</defs>
</svg>
