<svg width="30" height="30" viewBox="0 0 30 30" fill="none" xmlns="http://www.w3.org/2000/svg">
<path d="M14.9995 0C23.2837 0 29.9995 6.71578 29.9995 15C29.9995 23.2842 23.2837 30 14.9995 30C14.9995 29.3479 13.043 15 13.043 15L14.9995 0Z" fill="#F0F0F0"/>
<path d="M15 30C6.71578 30 0 23.2842 0 15C0 6.71578 6.71578 0 15 0" fill="#FFDA44"/>
<path d="M20.7438 13.0529L23.5628 16.7821C23.1186 17.4547 23.121 18.3608 23.6347 19.0403C24.2862 19.9022 25.5132 20.0729 26.3753 19.4212C27.2372 18.7697 27.4079 17.5427 26.7562 16.6807C26.2426 16.0012 25.3714 15.7518 24.6033 15.9957L20.2098 10.1836L19.1693 10.9702L17.6084 12.1499L19.1815 14.2308L20.7438 13.0529ZM24.8021 17.3402C25.0895 17.1229 25.4985 17.1799 25.7157 17.4671C25.9329 17.7544 25.8761 18.1635 25.5888 18.3807C25.3015 18.5978 24.8924 18.5411 24.6753 18.2537C24.458 17.9664 24.5148 17.5573 24.8021 17.3402Z" fill="#ACABB1"/>
<path d="M25.5788 14.231L27.152 12.15L25.5911 10.9702L24.5506 10.1836L20.1572 15.9957C19.3892 15.7518 18.5179 16.0012 18.0043 16.6807C17.3526 17.5427 17.5232 18.7697 18.3852 19.4212C19.2473 20.0728 20.4742 19.9022 21.1258 19.0403C21.6394 18.3608 21.6417 17.4547 21.1977 16.7821L24.0167 13.0529L25.5788 14.231ZM20.0853 18.2538C19.8681 18.5412 19.4591 18.598 19.1718 18.3809C18.8844 18.1636 18.8276 17.7545 19.0448 17.4672C19.262 17.18 19.671 17.123 19.9584 17.3403C20.2457 17.5575 20.3025 17.9665 20.0853 18.2538Z" fill="#FFDA44"/>
</svg>
