<svg width="30" height="30" viewBox="0 0 30 30" fill="none" xmlns="http://www.w3.org/2000/svg">
<g clip-path="url(#clip0)">
<path d="M15 30C23.2843 30 30 23.2843 30 15C30 6.71573 23.2843 0 15 0C6.71573 0 0 6.71573 0 15C0 23.2843 6.71573 30 15 30Z" fill="#F0F0F0"/>
<path d="M29.9998 14.9999C29.9998 9.05297 26.5389 3.91453 21.5215 1.48828V28.5114C26.5389 26.0852 29.9998 20.9468 29.9998 14.9999Z" fill="#D80027"/>
<path d="M0 14.9999C0 20.9468 3.46084 26.0852 8.47828 28.5115V1.48828C3.46084 3.91453 0 9.05297 0 14.9999Z" fill="#6DA544"/>
<path d="M11.0869 14.9997C11.0869 17.1608 12.8389 18.9127 15 18.9127C17.1611 18.9127 18.913 17.1608 18.913 14.9997V13.6953H11.0869V14.9997Z" fill="#6DA544"/>
<path d="M20.2171 12.3922H16.304C16.304 11.6719 15.72 11.0879 14.9996 11.0879C14.2793 11.0879 13.6953 11.6719 13.6953 12.3922H9.78223C9.78223 13.1127 10.4097 13.6966 11.13 13.6966H11.0866C11.0866 14.417 11.6705 15.001 12.3909 15.001C12.3909 15.7214 12.9749 16.3053 13.6953 16.3053H16.304C17.0244 16.3053 17.6084 15.7214 17.6084 15.001C18.3288 15.001 18.9127 14.417 18.9127 13.6966H18.8692C19.5896 13.6966 20.2171 13.1127 20.2171 12.3922Z" fill="#FF9811"/>
</g>
<defs>
<clipPath id="clip0">
<rect width="30" height="30" fill="white"/>
</clipPath>
</defs>
</svg>
