<svg width="30" height="30" viewBox="0 0 30 30" fill="none" xmlns="http://www.w3.org/2000/svg">
<path d="M15 30C23.2843 30 30 23.2843 30 15C30 6.71573 23.2843 0 15 0C6.71573 0 0 6.71573 0 15C0 23.2843 6.71573 30 15 30Z" fill="#F0F0F0"/>
<path d="M29.067 9.78221H13.0435V5.86914H5.21736V9.78221H0.932988C0.330059 11.4071 0 13.1648 0 14.9996C0 16.8344 0.330059 18.592 0.932988 20.2169L15 21.5213L29.067 20.2169C29.6699 18.592 30 16.8344 30 14.9996C30 13.1648 29.6699 11.4071 29.067 9.78221Z" fill="#0052B4"/>
<path d="M14.9996 29.9994C21.4491 29.9994 26.9472 25.9288 29.0666 20.2168H0.932617C3.05201 25.9288 8.55016 29.9994 14.9996 29.9994Z" fill="#D80027"/>
<path d="M5.21777 9.78301V11.0873C5.21777 14.0827 9.13084 15.0004 9.13084 15.0004C9.13084 15.0004 13.0439 14.0827 13.0439 11.0873V9.78301L11.7396 11.0874L9.13084 9.13086L6.52213 11.0874L5.21777 9.78301Z" fill="#F0F0F0"/>
</svg>
