<svg width="30" height="30" viewBox="0 0 30 30" fill="none" xmlns="http://www.w3.org/2000/svg">
<path d="M15 30C23.2843 30 30 23.2843 30 15C30 6.71573 23.2843 0 15 0C6.71573 0 0 6.71573 0 15C0 23.2843 6.71573 30 15 30Z" fill="#FFDA44"/>
<path d="M30 15.0007C30 9.85256 27.4061 5.31072 23.4543 2.60938H6.54568C2.59395 5.31072 0 9.85256 0 15.0007C0 20.1489 2.59395 24.6906 6.54568 27.392H23.4543C27.4061 24.6906 30 20.1489 30 15.0007Z" fill="#A2001D"/>
<path d="M11.7393 11.0868H18.261V8.47818L16.9566 9.13033L15.0001 7.17383L13.0436 9.13033L11.7393 8.47818V11.0868Z" fill="#FFDA44"/>
<path d="M20.8691 14.9999H17.6095C17.7374 14.7788 17.8117 14.5229 17.8117 14.2492C17.8117 13.4179 17.1378 12.7441 16.3066 12.7441C15.7323 12.7441 15.2336 13.0659 14.9798 13.5388C14.7261 13.0659 14.2273 12.7441 13.653 12.7441C12.8219 12.7441 12.148 13.4179 12.148 14.2492C12.148 14.523 12.2224 14.7789 12.3501 14.9999H9.12988C9.12988 15.9974 9.99865 16.8059 10.996 16.8059H10.9359C10.9359 17.6241 11.4801 18.3149 12.2262 18.5368L10.7603 20.0027L12.1438 21.3862L14.1062 19.4237C14.1831 19.4519 14.2626 19.4744 14.3448 19.4899L13.159 22.1673C13.7273 22.3984 14.3483 22.5267 14.9996 22.5267C15.6508 22.5267 16.2718 22.3984 16.8401 22.1673L15.6543 19.4899C15.7364 19.4745 15.816 19.4519 15.8928 19.4237L17.8552 21.3862L19.2386 20.0027L17.7727 18.5368C18.5188 18.3148 19.063 17.6241 19.063 16.806H19.0028C20.0003 16.8059 20.8691 15.9974 20.8691 14.9999Z" fill="#FFDA44"/>
<path d="M15.0004 15.9785L12.8809 16.9567V18.9133L15.0004 20.2176L17.12 18.9133V16.9567L15.0004 15.9785Z" fill="#6DA544"/>
<path d="M17.12 15H12.8809V17.6087H17.12V15Z" fill="#0052B4"/>
</svg>
