<svg width="30" height="30" viewBox="0 0 30 30" fill="none" xmlns="http://www.w3.org/2000/svg">
<path d="M0 15.0006C0 21.45 4.07062 26.9482 9.78252 29.0676L11.0869 15.0006L9.78252 0.933594C4.07062 3.05305 0 8.55113 0 15.0006Z" fill="#6DA544"/>
<path d="M29.9997 15C29.9997 6.71578 23.2839 0 14.9997 0C13.1649 0 11.4073 0.330059 9.78223 0.932988V29.067C11.4073 29.67 13.1649 30 14.9997 30C23.2839 30 29.9997 23.2842 29.9997 15Z" fill="#D80027"/>
<path d="M9.78279 20.2179C12.6643 20.2179 15.0002 17.882 15.0002 15.0006C15.0002 12.1191 12.6643 9.7832 9.78279 9.7832C6.90132 9.7832 4.56543 12.1191 4.56543 15.0006C4.56543 17.882 6.90132 20.2179 9.78279 20.2179Z" fill="#FFDA44"/>
<path d="M6.84766 12.3906V15.6515C6.84766 17.2723 8.16156 18.5863 9.78244 18.5863C11.4033 18.5863 12.7172 17.2724 12.7172 15.6515V12.3906H6.84766Z" fill="#D80027"/>
<path d="M9.78297 16.6302C9.24355 16.6302 8.80469 16.1914 8.80469 15.652V14.3477H10.7612V15.652C10.7612 16.1914 10.3223 16.6302 9.78297 16.6302Z" fill="#F0F0F0"/>
</svg>
