<svg width="30" height="30" viewBox="0 0 30 30" fill="none" xmlns="http://www.w3.org/2000/svg">
<path d="M15 30C23.2843 30 30 23.2843 30 15C30 6.71573 23.2843 0 15 0C6.71573 0 0 6.71573 0 15C0 23.2843 6.71573 30 15 30Z" fill="#F0F0F0"/>
<path d="M29.912 16.6319L29.9113 16.6309L29.9111 16.6319H29.912Z" fill="#0052B4"/>
<path d="M29.9115 16.6306C29.9115 16.6304 29.9116 16.6303 29.9116 16.6301L13.4617 0.078125C12.7196 0.15377 11.9934 0.283496 11.2873 0.46332C4.79871 2.11537 0 15.0001 0 15.0001C0 15.0001 20.9999 29.053 23.3956 27.4316C23.875 27.1072 24.3346 26.7559 24.7722 26.3797L15.0231 16.6306H29.9115Z" fill="#0052B4"/>
<path d="M26.0869 15.0003L11.4987 0.412109C4.90359 1.98928 0 7.92166 0 15.0003C0 23.2845 6.71578 30.0002 15 30.0002C18.1423 30.0002 21.0584 29.0333 23.4685 27.3818L11.0869 15.0003H26.0869Z" fill="#D80027"/>
<path d="M14.2655 22.1477L12.4336 21.2861L13.4091 19.5119L11.4198 19.8925L11.1678 17.8828L9.78219 19.3608L8.39662 17.8828L8.14449 19.8925L6.15529 19.5118L7.13082 21.2861L5.29883 22.1477L7.13082 23.0094L6.15529 24.7836L8.14461 24.4031L8.39656 26.4126L9.78219 24.9346L11.1678 26.4126L11.4198 24.4031L13.409 24.7836L12.4335 23.0095L14.2655 22.1477Z" fill="#F0F0F0"/>
<path d="M13.0433 8.31875L11.7108 7.69209L12.4204 6.40168L10.9735 6.67848L10.7902 5.2168L9.7824 6.29182L8.77465 5.2168L8.59125 6.67848L7.14439 6.40168L7.85397 7.69209L6.52148 8.31875L9.7824 8.97101L13.0433 8.31875Z" fill="#F0F0F0"/>
<path d="M13.6953 8.31836C13.6953 10.4795 11.9433 12.2314 9.78221 12.2314C7.62109 12.2314 5.86914 10.4795 5.86914 8.31836" fill="#F0F0F0"/>
</svg>
