<svg width="30" height="30" viewBox="0 0 30 30" fill="none" xmlns="http://www.w3.org/2000/svg">
<path d="M15 30C23.2843 30 30 23.2843 30 15C30 6.71573 23.2843 0 15 0C6.71573 0 0 6.71573 0 15C0 23.2843 6.71573 30 15 30Z" fill="#F0F0F0"/>
<path d="M0 15.0001C0 6.71578 6.71578 0 15 0C23.2842 0 30 6.71578 30 15.0001" fill="#D80027"/>
<path d="M9.13039 7.82688C9.13039 5.64145 10.6663 3.81578 12.7173 3.36783C12.4021 3.29904 12.0751 3.26172 11.739 3.26172C9.2177 3.26172 7.17383 5.30559 7.17383 7.82693C7.17383 10.3483 9.2177 12.3921 11.739 12.3921C12.075 12.3921 12.402 12.3548 12.7173 12.286C10.6663 11.838 9.13039 10.0124 9.13039 7.82688Z" fill="#F0F0F0"/>
<path d="M15.0004 3.58789L15.3241 4.58428H16.3719L15.5242 5.20016L15.848 6.19654L15.0004 5.58078L14.1527 6.19654L14.4765 5.20016L13.6289 4.58428H14.6766L15.0004 3.58789Z" fill="#F0F0F0"/>
<path d="M12.4585 5.54492L12.7822 6.54137H13.8299L12.9823 7.15719L13.3061 8.15357L12.4585 7.53781L11.6107 8.15357L11.9346 7.15719L11.0869 6.54137H12.1346L12.4585 5.54492Z" fill="#F0F0F0"/>
<path d="M17.5414 5.54492L17.8652 6.54137H18.9129L18.0652 7.15719L18.389 8.15357L17.5414 7.53781L16.6938 8.15357L17.0175 7.15719L16.1699 6.54137H17.2176L17.5414 5.54492Z" fill="#F0F0F0"/>
<path d="M16.5629 8.47852L16.8866 9.47496H17.9343L17.0867 10.0908L17.4105 11.0872L16.5629 10.4714L15.7152 11.0872L16.039 10.0908L15.1914 9.47496H16.239L16.5629 8.47852Z" fill="#F0F0F0"/>
<path d="M13.4369 8.47852L13.7607 9.47496H14.8084L13.9608 10.0908L14.2846 11.0872L13.4369 10.4714L12.5893 11.0872L12.913 10.0908L12.0654 9.47496H13.1131L13.4369 8.47852Z" fill="#F0F0F0"/>
</svg>
