<svg width="30" height="30" viewBox="0 0 30 30" fill="none" xmlns="http://www.w3.org/2000/svg">
<path d="M15 30C23.2843 30 30 23.2843 30 15C30 6.71573 23.2843 0 15 0C6.71573 0 0 6.71573 0 15C0 23.2843 6.71573 30 15 30Z" fill="#F0F0F0"/>
<path d="M29.067 9.7832H0.932988C0.33 11.4082 0 13.1658 0 15.0006C0 16.8354 0.33 18.593 0.932988 20.2179H29.0671C29.67 18.593 30 16.8354 30 15.0006C30 13.1658 29.67 11.4082 29.067 9.7832Z" fill="#0052B4"/>
<path d="M14.9997 0C10.4533 0 6.37971 2.02289 3.62891 5.21736H26.3704C23.6196 2.02289 19.546 0 14.9997 0Z" fill="#D80027"/>
<path d="M26.3704 24.7832H3.62891C6.37971 27.9777 10.4533 30.0006 14.9997 30.0006C19.546 30.0006 23.6196 27.9777 26.3704 24.7832Z" fill="#D80027"/>
</svg>
