<svg width="30" height="30" viewBox="0 0 30 30" fill="none" xmlns="http://www.w3.org/2000/svg">
<g clip-path="url(#clip0)">
<path d="M0.932617 20.2184C3.05201 25.9303 8.55016 30.001 14.9996 30.001C21.4491 30.001 26.9472 25.9303 29.0666 20.2184L14.9996 18.9141L0.932617 20.2184Z" fill="#FFDA44"/>
<path d="M14.9996 0C8.55016 0 3.05201 4.07063 0.932617 9.78264L14.9996 11.0869L29.0666 9.78258C26.9472 4.07062 21.4491 0 14.9996 0Z" fill="black"/>
<path d="M0.932988 9.7832C0.330059 11.4082 0 13.1658 0 15.0006C0 16.8354 0.330059 18.5929 0.932988 20.2179H29.0671C29.67 18.5929 30 16.8354 30 15.0006C30 13.1658 29.67 11.4082 29.067 9.7832H0.932988Z" fill="#D80027"/>
</g>
<defs>
<clipPath id="clip0">
<rect width="30" height="30" fill="white"/>
</clipPath>
</defs>
</svg>
