<svg width="30" height="30" viewBox="0 0 30 30" fill="none" xmlns="http://www.w3.org/2000/svg">
<path d="M15 30C23.2843 30 30 23.2843 30 15C30 6.71573 23.2843 0 15 0C6.71573 0 0 6.71573 0 15C0 23.2843 6.71573 30 15 30Z" fill="#F0F0F0"/>
<path d="M14.9999 0C9.05297 0 3.91453 3.46084 1.48828 8.47828H28.5114C26.0852 3.46084 20.9467 0 14.9999 0Z" fill="#FF9811"/>
<path d="M14.9999 29.9998C20.9467 29.9998 26.0852 26.5389 28.5115 21.5215H1.48828C3.91453 26.5389 9.05297 29.9998 14.9999 29.9998Z" fill="#6DA544"/>
<path d="M14.9996 20.2179C17.8811 20.2179 20.217 17.882 20.217 15.0006C20.217 12.1191 17.8811 9.7832 14.9996 9.7832C12.1181 9.7832 9.78223 12.1191 9.78223 15.0006C9.78223 17.882 12.1181 20.2179 14.9996 20.2179Z" fill="#0052B4"/>
<path d="M15.0001 18.26C16.801 18.26 18.261 16.8001 18.261 14.9991C18.261 13.1982 16.801 11.7383 15.0001 11.7383C13.1992 11.7383 11.7393 13.1982 11.7393 14.9991C11.7393 16.8001 13.1992 18.26 15.0001 18.26Z" fill="#F0F0F0"/>
<path d="M15.0004 10.9766L16.0064 13.2581L18.4851 12.9885L17.0123 15.0004L18.4851 17.0124L16.0064 16.7428L15.0004 19.0243L13.9944 16.7428L11.5156 17.0123L12.9884 15.0004L11.5156 12.9885L13.9944 13.2581L15.0004 10.9766Z" fill="#0052B4"/>
</svg>
