<svg width="30" height="30" viewBox="0 0 30 30" fill="none" xmlns="http://www.w3.org/2000/svg">
<g clip-path="url(#clip0)">
<path d="M0.932988 9.78287C0.330059 11.4079 0 13.1654 0 15.0002C0 16.835 0.330059 18.5927 0.932988 20.2176L15 21.522L29.067 20.2176C29.6699 18.5927 30 16.835 30 15.0002C30 13.1654 29.6699 11.4079 29.067 9.78287L15 8.47852L0.932988 9.78287Z" fill="#F0F0F0"/>
<path d="M14.9996 0C8.55015 0 3.05195 4.07062 0.932617 9.78264H29.0667C26.9472 4.07062 21.4491 0 14.9996 0Z" fill="#D80027"/>
<path d="M14.9996 29.9994C21.4491 29.9994 26.9472 25.9288 29.0666 20.2168H0.932617C3.05195 25.9288 8.55016 29.9994 14.9996 29.9994Z" fill="#6DA544"/>
</g>
<defs>
<clipPath id="clip0">
<rect width="30" height="30" fill="white"/>
</clipPath>
</defs>
</svg>
