<svg width="30" height="30" viewBox="0 0 30 30" fill="none" xmlns="http://www.w3.org/2000/svg">
<path d="M15 30C23.2843 30 30 23.2843 30 15C30 6.71573 23.2843 0 15 0C6.71573 0 0 6.71573 0 15C0 23.2843 6.71573 30 15 30Z" fill="#D80027"/>
<path d="M16.5489 11.347C16.208 12.7649 15.6023 12.4945 15.3051 13.731C13.5541 13.3101 12.4758 11.5493 12.8968 9.79824C13.3176 8.04728 15.0785 6.96892 16.8295 7.38992C16.235 9.86298 16.8539 10.0788 16.5489 11.347Z" fill="#F0F0F0"/>
<path d="M12.0049 12.3978C13.2481 13.1601 12.8038 13.6527 13.8879 14.3175C12.9464 15.8528 10.9387 16.3341 9.40338 15.3927C7.86817 14.4513 7.3867 12.4434 8.32818 10.9082C10.4965 12.2378 10.8929 11.7159 12.0049 12.3978Z" fill="#F0F0F0"/>
<path d="M11.6005 17.0432C12.7098 16.0965 13.0408 16.6713 14.0081 15.8457C15.1773 17.2154 15.0147 19.2737 13.645 20.443C12.2752 21.6122 10.2169 21.4494 9.04785 20.0797C10.9823 18.4284 10.6084 17.89 11.6005 17.0432Z" fill="#F0F0F0"/>
<path d="M15.8941 18.8636C15.3363 17.5161 15.9853 17.3787 15.499 16.2038C17.163 15.5151 19.0704 16.3058 19.7591 17.9698C20.4477 19.6338 19.657 21.5411 17.993 22.2298C17.0205 19.8796 16.393 20.0688 15.8941 18.8636Z" fill="#F0F0F0"/>
<path d="M18.952 15.3431C17.4981 15.4572 17.5679 14.7974 16.3002 14.8969C16.1594 13.1017 17.5008 11.5319 19.2962 11.391C21.0915 11.2504 22.6612 12.5917 22.802 14.3872C20.2662 14.586 20.2522 15.2412 18.952 15.3431Z" fill="#F0F0F0"/>
</svg>
