<svg width="30" height="30" viewBox="0 0 30 30" fill="none" xmlns="http://www.w3.org/2000/svg">
<path d="M15 30C23.2843 30 30 23.2843 30 15C30 6.71573 23.2843 0 15 0C6.71573 0 0 6.71573 0 15C0 23.2843 6.71573 30 15 30Z" fill="#F0F0F0"/>
<path d="M29.873 13.0444H11.7392H11.7391V0.357422C10.3529 0.664805 9.03873 1.16303 7.82607 1.82473V13.0443V13.0443H0.126973C0.0434766 13.6848 0 14.3378 0 15.0009C0 15.664 0.0434766 16.317 0.126973 16.9574H7.82602H7.82607V28.177C9.03873 28.8386 10.3529 29.337 11.7391 29.6443V16.9576V16.9574H29.873C29.9564 16.317 30 15.664 30 15.0009C30 14.3378 29.9564 13.6848 29.873 13.0444Z" fill="#0052B4"/>
</svg>
