<svg width="30" height="30" viewBox="0 0 30 30" fill="none" xmlns="http://www.w3.org/2000/svg">
<path d="M30 15C30 23.2842 23.2842 30 15 30C6.71578 30 0 23.2842 0 15C0 15.0035 15 0.00169922 15 0C23.2842 0 30 6.71578 30 15Z" fill="#0052B4"/>
<path d="M14.96 14.9996H14.9999C14.9999 14.9858 14.9999 14.9727 14.9999 14.959C14.9866 14.9726 14.9733 14.9861 14.96 14.9996Z" fill="#F0F0F0"/>
<path d="M15 7.82803C15 5.18867 15 3.45916 15 0.00195312H14.9975C6.71437 0.00330078 0 6.71844 0 15.0019H7.82607V10.5949L12.233 15.0019H14.9599C14.9733 14.9885 14.9867 14.9752 15.0001 14.9618C15.0001 13.9512 15.0001 13.0495 15.0001 12.235L10.593 7.82803H15Z" fill="#F0F0F0"/>
<path d="M7.5893 1.95703C5.24326 3.29291 3.29291 5.24326 1.95703 7.5893V15.0005H5.8701V5.87016V5.8701H15.0005C15.0005 4.63594 15.0005 3.4602 15.0005 1.95703H7.5893Z" fill="#D80027"/>
<path d="M15 13.1554L9.67076 7.8262H7.82617C7.82617 7.82614 7.82617 7.8262 7.82617 7.8262L15 15H15C15 15 15 13.7282 15 13.1554Z" fill="#D80027"/>
<path d="M9.04686 17.6094L9.8701 19.3307L11.7291 18.9011L10.8966 20.618L12.3916 21.8035L10.5302 22.223L10.5354 24.1311L9.04686 22.9374L7.55834 24.1311L7.56356 22.223L5.70215 21.8035L7.19717 20.618L6.36455 18.9011L8.22367 19.3307L9.04686 17.6094Z" fill="#F0F0F0"/>
<path d="M22.4585 20.8691L22.8701 21.7298L23.7996 21.515L23.3833 22.3734L24.1308 22.9662L23.2001 23.176L23.2027 24.13L22.4585 23.5331L21.7142 24.13L21.7168 23.176L20.7861 22.9662L21.5336 22.3734L21.1174 21.515L22.0468 21.7298L22.4585 20.8691Z" fill="#F0F0F0"/>
<path d="M18.6294 11.7383L19.041 12.599L19.9705 12.3841L19.5543 13.2426L20.3017 13.8354L19.3711 14.0451L19.3736 14.9991L18.6294 14.4022L17.8852 14.9991L17.8877 14.0451L16.957 13.8354L17.7045 13.2426L17.2883 12.3841L18.2178 12.599L18.6294 11.7383Z" fill="#F0F0F0"/>
<path d="M22.4585 6.52148L22.8701 7.38223L23.7996 7.16736L23.3834 8.02582L24.1308 8.61855L23.2001 8.82838L23.2027 9.7824L22.4585 9.18551L21.7142 9.7824L21.7168 8.82838L20.7861 8.61855L21.5336 8.02582L21.1174 7.16736L22.0468 7.38223L22.4585 6.52148Z" fill="#F0F0F0"/>
<path d="M25.8032 10.4336L26.2148 11.2943L27.1443 11.0794L26.7281 11.9379L27.4756 12.5307L26.5449 12.7405L26.5474 13.6945L25.8032 13.0976L25.059 13.6945L25.0615 12.7405L24.1309 12.5307L24.8783 11.9379L24.4621 11.0794L25.3916 11.2943L25.8032 10.4336Z" fill="#F0F0F0"/>
<path d="M23.4115 15L23.7353 15.9964H24.783L23.9354 16.6123L24.2592 17.6087L23.4115 16.9929L22.5639 17.6087L22.8877 16.6123L22.04 15.9964H23.0878L23.4115 15Z" fill="#F0F0F0"/>
</svg>
