<svg width="30" height="30" viewBox="0 0 30 30" fill="none" xmlns="http://www.w3.org/2000/svg">
<g clip-path="url(#clip0)">
<path d="M0 15.0004C0 16.8352 0.330059 18.5928 0.932988 20.2178L15 20.87L29.067 20.2179C29.67 18.5928 30 16.8352 30 15.0004C30 13.1656 29.67 11.408 29.067 9.78307L15 9.13086L0.932988 9.78301C0.330059 11.408 0 13.1656 0 15.0004Z" fill="black"/>
<path d="M14.9996 0C8.55016 0 3.05201 4.07062 0.932617 9.78264H29.0667C26.9472 4.07062 21.4491 0 14.9996 0Z" fill="#0052B4"/>
<path d="M29.0666 20.2168H0.932617C3.05201 25.9288 8.55016 29.9994 14.9996 29.9994C21.4491 29.9994 26.9472 25.9288 29.0666 20.2168Z" fill="#F0F0F0"/>
</g>
<defs>
<clipPath id="clip0">
<rect width="30" height="30" fill="white"/>
</clipPath>
</defs>
</svg>
