<svg width="30" height="30" viewBox="0 0 30 30" fill="none" xmlns="http://www.w3.org/2000/svg">
<path d="M30 15C30 23.2842 23.2842 30 15 30C6.71578 30 0 23.2842 0 15C0 15.0036 15 0.00164063 15 0C23.2842 0 30 6.71578 30 15Z" fill="#0052B4"/>
<path d="M14.96 14.9989H14.9999C14.9999 14.9855 14.9999 14.9725 14.9999 14.959C14.9866 14.9723 14.9733 14.9856 14.96 14.9989Z" fill="#F0F0F0"/>
<path d="M15 7.82607C15 5.18672 15 3.45732 15 0H14.9975C6.71437 0.00140625 0 6.71654 0 15H7.82607V10.5931L12.233 15H14.9599C14.9733 14.9866 14.9867 14.9733 15.0001 14.9599C15.0001 13.9493 15.0001 13.0476 15.0001 12.2331L10.593 7.82607H15Z" fill="#F0F0F0"/>
<path d="M7.5893 1.95703C5.24326 3.29291 3.29291 5.24326 1.95703 7.5893V15.0005H5.8701V5.87021V5.8701H15.0005C15.0005 4.63594 15.0005 3.4602 15.0005 1.95703H7.5893Z" fill="#D80027"/>
<path d="M15 13.1555L9.67076 7.82617C9.67076 7.82617 7.82617 7.82629 7.82617 7.82617V7.82629L15 15H15C15 15 15 13.7281 15 13.1555Z" fill="#D80027"/>
<path d="M25.977 11.1309L26.3008 12.1273H27.3485L26.5009 12.7431L26.8247 13.7395L25.977 13.1238L25.1294 13.7395L25.4531 12.7431L24.6055 12.1273H25.6532L25.977 11.1309Z" fill="#D80027"/>
<path d="M22.232 18.3047L22.7177 19.7994H24.2893L23.0178 20.7231L23.5035 22.2178L22.232 21.294L20.9605 22.2178L21.4463 20.7231L20.1748 19.7994H21.7463L22.232 18.3047Z" fill="#D80027"/>
<path d="M22.3735 6.56641L22.7782 7.81205H24.0879L23.0282 8.58168L23.433 9.82726L22.3735 9.0574L21.314 9.82726L21.7187 8.58168L20.6592 7.81205H21.9688L22.3735 6.56641Z" fill="#D80027"/>
<path d="M18.7691 11.0879L19.2548 12.5826H20.8264L19.5549 13.5063L20.0406 15.001L18.7691 14.0772L17.4977 15.001L17.9834 13.5063L16.7119 12.5826H18.2835L18.7691 11.0879Z" fill="#D80027"/>
</svg>
