<svg width="30" height="30" viewBox="0 0 30 30" fill="none" xmlns="http://www.w3.org/2000/svg">
<circle cx="13.2382" cy="13.2382" r="13.2382" fill="#2746C7"/>
<path d="M22.4665 12.9932C22.3143 11.2332 20.8254 9.85107 19.0087 9.85107C17.8382 9.85107 16.8034 10.4262 16.176 11.305C15.8061 11.8245 15.5743 12.446 15.5416 13.1254C15.5392 13.1787 15.5369 13.2344 15.5369 13.2877C15.5369 14.4913 14.5536 15.4652 13.3409 15.4652C13.3386 15.4652 13.3386 15.4652 13.3386 15.4652H13.3362C12.1259 15.4652 11.1403 14.4913 11.1403 13.2877C11.1403 13.2344 11.138 13.1787 11.1356 13.1254C11.1052 12.446 10.8734 11.8245 10.5012 11.305C9.88079 10.4262 8.84602 9.85107 7.67548 9.85107C5.85879 9.85107 4.36985 11.2332 4.21768 12.9932C4.21768 12.9932 4.20598 13.1347 4.20832 13.1695C4.23173 13.4964 4.5033 13.7585 4.84041 13.7585C5.19392 13.7585 5.46548 13.4709 5.47719 13.1277C5.51933 12.5642 5.77919 12.061 6.1725 11.6993C6.56814 11.3375 7.09489 11.1149 7.67314 11.1149C8.82964 11.1149 9.77778 12.003 9.86206 13.1277L9.87142 13.304C9.87377 14.0391 10.1079 14.7162 10.5059 15.2727C11.1333 16.1516 12.1704 16.7267 13.3386 16.7267C13.3409 16.7267 13.3409 16.7267 13.3409 16.7267H13.3433C14.5115 16.7267 15.5486 16.1516 16.176 15.2727C16.574 14.7162 16.8081 14.0391 16.8104 13.304L16.8198 13.1277C16.9041 12.0007 17.8522 11.1149 19.0087 11.1149C19.587 11.1149 20.1161 11.3375 20.5094 11.6993C20.9027 12.061 21.1625 12.5642 21.2047 13.1277C21.2187 13.4709 21.4903 13.7585 21.8414 13.7585C22.1786 13.7585 22.4501 13.4988 22.4735 13.1695C22.4782 13.1347 22.4665 12.9932 22.4665 12.9932Z" fill="white" stroke="white" stroke-width="0.5"/>
</svg>
