<svg width="30" height="30" viewBox="0 0 30 30" fill="none" xmlns="http://www.w3.org/2000/svg">
<path d="M15 30C23.2843 30 30 23.2843 30 15C30 6.71573 23.2843 0 15 0C6.71573 0 0 6.71573 0 15C0 23.2843 6.71573 30 15 30Z" fill="#F0F0F0"/>
<path d="M14.9999 0C9.05297 0 3.91453 3.46084 1.48828 8.47828H28.5114C26.0852 3.46084 20.9467 0 14.9999 0Z" fill="#338AF3"/>
<path d="M14.9999 29.9998C20.9467 29.9998 26.0852 26.5389 28.5115 21.5215H1.48828C3.91453 26.5389 9.05297 29.9998 14.9999 29.9998Z" fill="#338AF3"/>
<path d="M19.4832 14.9992L17.6513 15.861L18.6268 17.6351L16.6375 17.2546L16.3855 19.2641L14.9999 17.7861L13.6143 19.2641L13.3623 17.2546L11.373 17.6351L12.3485 15.8609L10.5166 14.9992L12.3485 14.1375L11.373 12.3634L13.3622 12.7439L13.6143 10.7344L14.9999 12.2123L16.3855 10.7344L16.6375 12.7439L18.6269 12.3634L17.6513 14.1376L19.4832 14.9992Z" fill="#FFDA44"/>
</svg>
