<svg width="30" height="30" viewBox="0 0 30 30" fill="none" xmlns="http://www.w3.org/2000/svg">
<path d="M15 30C23.2843 30 30 23.2843 30 15C30 6.71573 23.2843 0 15 0C6.71573 0 0 6.71573 0 15C0 23.2843 6.71573 30 15 30Z" fill="#F0F0F0"/>
<path d="M15 11.0869H29.4833C29.1071 9.69154 28.5355 8.37664 27.7984 7.17383H15V11.0869Z" fill="#338AF3"/>
<path d="M5.66225 26.7392H24.3368C25.7058 25.6489 26.8797 24.3246 27.7979 22.8262H2.20117C3.11939 24.3245 4.29338 25.6489 5.66225 26.7392Z" fill="#338AF3"/>
<path d="M5.21693 3.62891C4.03768 4.64439 3.0182 5.84023 2.20117 7.17359H5.21693V3.62891Z" fill="#338AF3"/>
<path d="M15 15.001C15 13.4731 15 12.1944 15 11.0879H9.13043V15.001H5.21736V11.0879H0.516738C0.180469 12.3356 0 13.647 0 15.001C0 16.3549 0.180469 17.6663 0.516738 18.914H29.4833C29.8195 17.6663 30 16.3549 30 15.001H15Z" fill="#338AF3"/>
<path d="M15.0004 0C12.9175 0 10.9338 0.42498 9.13086 1.19227V7.17393H15.0004C15.0004 5.80799 15.0004 4.64625 15.0004 3.26086H24.3378C21.7754 1.22016 18.5306 0 15.0004 0Z" fill="#338AF3"/>
</svg>
