<svg width="30" height="30" viewBox="0 0 30 30" fill="none" xmlns="http://www.w3.org/2000/svg">
<path d="M15 30C23.2843 30 30 23.2843 30 15C30 6.71573 23.2843 0 15 0C6.71573 0 0 6.71573 0 15C0 23.2843 6.71573 30 15 30Z" fill="#F0F0F0"/>
<path d="M14.9999 0C9.05297 0 3.91453 3.46084 1.48828 8.47828H28.5114C26.0852 3.46084 20.9467 0 14.9999 0Z" fill="#D80027"/>
<path d="M14.9999 29.9998C20.9467 29.9998 26.0852 26.5389 28.5115 21.5215H1.48828C3.91453 26.5389 9.05297 29.9998 14.9999 29.9998Z" fill="#0052B4"/>
<path d="M18.6888 10.6582L17.3053 12.0417C17.8954 12.6318 18.2605 13.447 18.2605 14.3474C18.2605 16.1484 16.8005 17.6083 14.9996 17.6083C13.1987 17.6083 11.7387 16.1483 11.7387 14.3474C11.7387 13.447 12.1038 12.6318 12.6939 12.0417L11.3104 10.6582C10.3662 11.6023 9.78223 12.9066 9.78223 14.3474C9.78223 17.229 12.1181 19.5648 14.9996 19.5648C17.8811 19.5648 20.217 17.2289 20.217 14.3474C20.2169 12.9066 19.633 11.6023 18.6888 10.6582Z" fill="#6DA544"/>
<path d="M14.9996 12.3906L15.4853 13.8854H17.0568L15.7854 14.809L16.2711 16.3037L14.9996 15.38L13.7281 16.3037L14.2138 14.809L12.9424 13.8854H14.5139L14.9996 12.3906Z" fill="#FFDA44"/>
</svg>
