<svg width="30" height="30" viewBox="0 0 30 30" fill="none" xmlns="http://www.w3.org/2000/svg">
<path d="M0 15C0 6.71578 6.71578 0 15 0C23.2842 0 30 6.71578 30 15L15 16.3044L0 15Z" fill="#FFDA44"/>
<path d="M2.00684 22.4998C4.60049 26.9831 9.4476 29.9998 14.9996 29.9998C20.5517 29.9998 25.3988 26.9831 27.9925 22.4998L14.9996 21.5215L2.00684 22.4998Z" fill="#D80027"/>
<path d="M27.9928 22.5C29.2691 20.2937 30 17.7323 30 15H0C0 17.7323 0.730898 20.2937 2.00719 22.5H27.9928Z" fill="#0052B4"/>
<path d="M14.9996 20.2179C17.8811 20.2179 20.217 17.882 20.217 15.0006C20.217 12.1191 17.8811 9.7832 14.9996 9.7832C12.1181 9.7832 9.78223 12.1191 9.78223 15.0006C9.78223 17.882 12.1181 20.2179 14.9996 20.2179Z" fill="#FFDA44"/>
<path d="M15.0001 18.2614C13.2021 18.2614 11.7393 16.7986 11.7393 15.0006V13.0441C11.7393 11.246 13.2021 9.7832 15.0001 9.7832C16.7981 9.7832 18.261 11.2461 18.261 13.0441V15.0006C18.261 16.7986 16.7982 18.2614 15.0001 18.2614Z" fill="#338AF3"/>
<path d="M20.2171 7.1735H16.304C16.304 6.45314 15.72 5.86914 14.9996 5.86914C14.2793 5.86914 13.6953 6.45314 13.6953 7.1735H9.78223C9.78223 7.89391 10.4097 8.47785 11.13 8.47785H11.0866C11.0866 9.19826 11.6705 9.78221 12.3909 9.78221C12.3909 10.5026 12.9749 11.0866 13.6953 11.0866H16.304C17.0244 11.0866 17.6084 10.5026 17.6084 9.78221C18.3288 9.78221 18.9127 9.19826 18.9127 8.47785H18.8693C19.5896 8.47785 20.2171 7.89385 20.2171 7.1735Z" fill="black"/>
</svg>
