<svg width="30" height="30" viewBox="0 0 30 30" fill="none" xmlns="http://www.w3.org/2000/svg">
<g clip-path="url(#clip0)">
<path d="M30 15.0004C30 13.1656 29.6699 11.408 29.067 9.78307L15 9.13086L0.932988 9.78301C0.330059 11.408 0 13.1656 0 15.0004C0 16.8352 0.330059 18.5929 0.932988 20.2178L15 20.87L29.067 20.2178C29.6699 18.5929 30 16.8352 30 15.0004Z" fill="#F0F0F0"/>
<path d="M14.9996 29.9994C21.4491 29.9994 26.9472 25.9288 29.0666 20.2168H0.932617C3.05201 25.9288 8.55016 29.9994 14.9996 29.9994Z" fill="#0052B4"/>
<path d="M0.932617 9.78264H29.0667C26.9472 4.07062 21.4491 0 14.9996 0C8.55016 0 3.05201 4.07062 0.932617 9.78264Z" fill="#D80027"/>
<path d="M18.9124 10.4344H16.3037L16.7385 7.1735L18.4776 5.86914L20.2167 7.1735V9.78221L18.9124 10.4344Z" fill="#338AF3"/>
<path d="M11.0865 10.4344H13.6952L13.2604 7.1735L11.5213 5.86914L9.78223 7.1735V9.78221L11.0865 10.4344Z" fill="#338AF3"/>
<path d="M16.7391 10.4344H13.2607V7.1735L14.9999 5.86914L16.7391 7.1735V10.4344Z" fill="#0052B4"/>
<path d="M9.78223 9.7832V16.9571C9.78223 18.6653 10.6073 20.1844 11.88 21.1367L12.7931 20.9082L13.9453 22.0673C14.286 22.1375 14.6385 22.1745 14.9996 22.1745C15.3588 22.1745 15.7096 22.138 16.0485 22.0685L17.3638 20.9734L18.1192 21.1346C19.3913 20.1823 20.217 18.6648 20.217 16.9571V9.7832H9.78223Z" fill="#F0F0F0"/>
<path d="M11.8692 9.7832H9.78223V11.8701H11.8692V9.7832Z" fill="#D80027"/>
<path d="M16.043 9.7832H13.9561V11.8701H16.043V9.7832Z" fill="#D80027"/>
<path d="M20.2168 9.7832H18.1299V11.8701H20.2168V9.7832Z" fill="#D80027"/>
<path d="M13.9561 11.8711H11.8691V13.958H13.9561V11.8711Z" fill="#D80027"/>
<path d="M18.1299 11.8711H16.043V13.958H18.1299V11.8711Z" fill="#D80027"/>
<path d="M11.8692 13.957H9.78223V16.044H11.8692V13.957Z" fill="#D80027"/>
<path d="M13.9561 16.043H11.8691V18.1299H13.9561V16.043Z" fill="#D80027"/>
<path d="M16.043 13.957H13.9561V16.044H16.043V13.957Z" fill="#D80027"/>
<path d="M20.2168 13.957H18.1299V16.044H20.2168V13.957Z" fill="#D80027"/>
<path d="M18.1299 16.043H16.043V18.1299H18.1299V16.043Z" fill="#D80027"/>
<path d="M16.043 18.1309H13.9561V20.2178H16.043V18.1309Z" fill="#D80027"/>
<path d="M11.8683 18.1309H9.91602C10.0951 18.9066 10.4471 19.6165 10.9298 20.2178H11.8683V18.1309Z" fill="#D80027"/>
<path d="M18.1299 20.2178H19.0683C19.5511 19.6165 19.903 18.9066 20.0821 18.1309H18.1299V20.2178Z" fill="#D80027"/>
<path d="M11.8691 20.2168V21.1274C12.4761 21.5841 13.1854 21.9116 13.9561 22.0688V20.2168H11.8691Z" fill="#D80027"/>
<path d="M16.043 20.2168V22.0688C16.8137 21.9117 17.5229 21.5841 18.1299 21.1274V20.2168H16.043Z" fill="#D80027"/>
</g>
<defs>
<clipPath id="clip0">
<rect width="30" height="30" fill="white"/>
</clipPath>
</defs>
</svg>
