<svg width="30" height="30" viewBox="0 0 30 30" fill="none" xmlns="http://www.w3.org/2000/svg">
<g clip-path="url(#clip0)">
<path d="M15 30C23.2843 30 30 23.2843 30 15C30 6.71573 23.2843 0 15 0C6.71573 0 0 6.71573 0 15C0 23.2843 6.71573 30 15 30Z" fill="#F0F0F0"/>
<path d="M30.0004 15.0006C30.0004 8.55113 25.9298 3.05293 20.2178 0.933594V29.0677C25.9298 26.9482 30.0004 21.4501 30.0004 15.0006Z" fill="#D80027"/>
<path d="M0 15.0005C0 21.4501 4.07062 26.9482 9.78264 29.0676V0.933594C4.07062 3.05293 0 8.55113 0 15.0005Z" fill="#D80027"/>
</g>
<defs>
<clipPath id="clip0">
<rect width="30" height="30" fill="white"/>
</clipPath>
</defs>
</svg>
