<svg width="30" height="30" viewBox="0 0 30 30" fill="none" xmlns="http://www.w3.org/2000/svg">
<g clip-path="url(#clip0)">
<path d="M15 30C23.2843 30 30 23.2843 30 15C30 6.71573 23.2843 0 15 0C6.71573 0 0 6.71573 0 15C0 23.2843 6.71573 30 15 30Z" fill="#F0F0F0"/>
<path d="M15.0002 0V15L4.39355 25.6066C7.10803 28.3211 10.858 30 15.0002 30C23.2844 30 30.0002 23.2842 30.0002 15C30.0002 6.71578 15.0002 0 15.0002 0Z" fill="#D80027"/>
<path d="M15.0002 0C10.858 0 7.10803 1.67895 4.39355 4.39336C8.07383 8.07363 9.38029 9.38016 15.0002 15H30.0002C30.0002 6.71578 23.2844 0 15.0002 0Z" fill="#0052B4"/>
<path d="M10.2713 14.9992L8.43941 14.1376L9.41494 12.3634L7.42568 12.744L7.17361 10.7344L5.78799 12.2123L4.40242 10.7344L4.15029 12.744L2.16109 12.3633L3.13662 14.1376L1.30469 14.9992L3.13662 15.8609L2.16109 17.6351L4.15047 17.2546L4.40236 19.2641L5.78799 17.7861L7.17361 19.2641L7.42568 17.2546L9.41482 17.6351L8.43936 15.861L10.2713 14.9992Z" fill="#FFDA44"/>
<path d="M4.00078 5.86914L4.61039 6.72127L5.60912 6.40492L4.98697 7.24797L5.59658 8.1001L4.60248 7.76898L3.98039 8.61197L3.98818 7.56431L2.99414 7.23314L3.99305 6.9168L4.00078 5.86914Z" fill="#FFDA44"/>
<path d="M4.00078 21.3867L4.61039 22.2388L5.60912 21.9224L4.98697 22.7655L5.59658 23.6177L4.60248 23.2866L3.98039 24.1295L3.98818 23.0819L2.99414 22.7507L3.99305 22.4344L4.00078 21.3867Z" fill="#FFDA44"/>
<path d="M12.6953 13.6289L12.0857 14.481L11.0869 14.1646L11.7091 15.0077L11.0995 15.8599L12.0936 15.5287L12.7157 16.3717L12.7079 15.3241L13.7019 14.9929L12.703 14.6766L12.6953 13.6289Z" fill="#FFDA44"/>
</g>
<defs>
<clipPath id="clip0">
<rect width="30" height="30" fill="white"/>
</clipPath>
</defs>
</svg>
