<svg width="30" height="30" viewBox="0 0 30 30" fill="none" xmlns="http://www.w3.org/2000/svg">
<path d="M15 30C23.2843 30 30 23.2843 30 15C30 6.71573 23.2843 0 15 0C6.71573 0 0 6.71573 0 15C0 23.2843 6.71573 30 15 30Z" fill="#F0F0F0"/>
<path d="M0.516602 18.9121C1.90164 24.051 5.94795 28.0973 11.0869 29.4824V18.9121H0.516602Z" fill="#D80027"/>
<path d="M11.0868 0.517578C5.94795 1.90256 1.90158 5.94892 0.516602 11.0878H11.0869V0.517578H11.0868Z" fill="#0052B4"/>
<path d="M29.4833 11.0878C28.0983 5.94893 24.0519 1.90256 18.9131 0.517578V11.0878H29.4833V11.0878Z" fill="#D80027"/>
<path d="M18.9131 29.4824C24.0519 28.0973 28.0983 24.051 29.4833 18.9121H18.9131V29.4824Z" fill="#0052B4"/>
<path d="M18.9131 14.999C18.9131 17.1602 17.1612 18.9121 15 18.9121C12.8389 18.9121 11.0869 17.1602 11.0869 14.999C11.0869 12.8378 15 11.0859 15 11.0859C15 11.0859 18.9131 12.8378 18.9131 14.999Z" fill="#496E2D"/>
<path d="M11.0869 14.999C11.0869 12.8378 12.8389 11.0859 15 11.0859C17.1612 11.0859 18.9131 12.8378 18.9131 14.999" fill="#0052B4"/>
<path d="M12.7988 13.043V15.4886C12.7988 16.7043 13.7843 17.6897 14.9999 17.6897C16.2156 17.6897 17.201 16.7043 17.201 15.4886V13.043H12.7988Z" fill="#D80027"/>
</svg>
